<svg id="ABP_e-Paper-red" xmlns="http://www.w3.org/2000/svg" width="338.264" height="42" viewBox="0 0 338.264 42">
  <g id="Layer_1">
    <g id="Group_856" data-name="Group 856" transform="translate(0 0)">
      <g id="Group_854" data-name="Group 854">
        <path id="Path_61950" data-name="Path 61950" d="M358.507,73.812c-1.86-.8-3.932-.211-4.609,1.353a3.5,3.5,0,0,0,2.072,4.355,3.163,3.163,0,1,0,2.537-5.708Z" transform="translate(-204.132 -42.382)"/>
        <path id="Path_61951" data-name="Path 61951" d="M143.466,17.236a12.316,12.316,0,0,1-.55-2.833c-.127-1.184-1.015-1.015-1.015-1.015-.719.127-.719,1.057-.719,1.057l-.127,8.668-1.142-1.734a9.468,9.468,0,0,0-1.9-2.072,5.153,5.153,0,0,0-3.044-.719H110.781a2.456,2.456,0,0,1-2.368-1.268,12.617,12.617,0,0,1-.677-3.044c-.169-.338-.085-.888-.888-.888s-.761,1.057-.761,1.057l-.169,8.583-.719-1.1a12.93,12.93,0,0,0-1.987-2.368,4.322,4.322,0,0,0-2.706-.973H38.689a2.275,2.275,0,0,1-2.537-2.072,8.026,8.026,0,0,1-.211-1.987,1.165,1.165,0,0,0-.8-1.015c-1.015-.254-1.015.888-1.015.888l-.254,8.541a18.729,18.729,0,0,0-2.2-3c-1.438-1.564-4.651-1.353-4.651-1.353H0v4.144H13.108c.592.211.465.465.465.465a6.084,6.084,0,0,0-2.96,1.057,4.648,4.648,0,0,0-1.607,5.539,4.2,4.2,0,0,0,3.848,2.875,3.073,3.073,0,0,0,2.664-.93c2.495-1.776,1.311-5.243,1.311-5.243A2.876,2.876,0,0,1,18.139,27a4.749,4.749,0,0,1,1.649,3.467,5.479,5.479,0,0,1-1.9,4.144c-4.144,3.467-8.161-.169-8.161-.169-3.721-2.96-7.1-9.725-7.1-9.725-.55-1.522-1.1-1.311-1.1-1.311-1.4.169-.634,1.649-.634,1.649l.973,1.987c3.552,8.2,7.061,11.332,7.061,11.332,7.484,7.061,12.262-.55,12.262-.55a14.92,14.92,0,0,1,3.636,4.9A13.838,13.838,0,0,1,26.215,47c.085,2.114,1.226,1.776,1.226,1.776.888,0,.8-1.776.8-1.776V22.691a5.264,5.264,0,0,1,3.721,1.142A5.505,5.505,0,0,1,33.7,27.849l-.338,17.463L37.5,49.583l-.169-26.807H51.585l-.211,9.514a20.286,20.286,0,0,0-2.622-3.89,5.494,5.494,0,0,0-5.328-2.03A6.241,6.241,0,0,0,38.9,32.585c0,6.554,4.863,6.427,4.863,6.427,5.2-.3,4.313-5.75,4.313-5.75,2.072,1.142,3.763,5.032,3.763,5.032a29.461,29.461,0,0,1,1.734,9.429c.085,1.311.973,1.142.973,1.142.888.042.8-1.268.8-1.268l-.085-24.778h12.22V29.2l-1.1-1.9a5.269,5.269,0,0,0-5.328-2.918,4.831,4.831,0,0,0-3.763,3.932c-.634,5.074,2.833,5.92,2.833,5.92a3.494,3.494,0,0,0,4.567-2.41,4.358,4.358,0,0,0,.085-2.495,3.508,3.508,0,0,1,.973.846,8.977,8.977,0,0,1,1.48,3.805,6.919,6.919,0,0,1-1.184,4.778c-.381.592.169.8.169.8a15.776,15.776,0,0,0,3.34,2.495c1.057.55,1.057-.254,1.057-.254l.127-.338a20.281,20.281,0,0,1,4.736-6.342c-2.03,8.71,2.918,13.319,2.918,13.319a1.127,1.127,0,0,0,1.142.55.845.845,0,0,0,.254-1.311,13.287,13.287,0,0,1-2.03-5.708,12.581,12.581,0,0,1,1.184-6.089A25.155,25.155,0,0,1,82.114,31.7a.783.783,0,0,0,.127-.93,17.771,17.771,0,0,0-3.3-4.228c-.169-.169-.3-.085-.3-.085-3.3,1.226-7.442,5.285-7.442,5.285V22.86h25.2v.465c-10.19,4.9-12.9,7.738-12.9,7.738l3.34,5.5c10.824.423,11.67,11.332,11.67,11.332.127,1.184.93,1.1.93,1.1.888,0,.8-1.311.8-1.311V22.86a5.218,5.218,0,0,1,5.455,4.651l-.3,18.309,3.932,3.89V22.86h9.175c-2.156,2.072-2.326,6.131-2.326,6.131.465,2.622.677,4.736,3.383,6.512a4.725,4.725,0,0,0,6.934-1.268c-.127,3.721-1.607,5.5-4.059,5.581-2.452,0-3.509-.55-5.5-3.256s-3.721-9.852-3.848-11.5-1.268-1.48-1.268-1.48c-.761.169-.677,1.311-.677,1.311a67.773,67.773,0,0,0,2.875,11.29c2.791,8.372,5.962,9.218,7.484,9.471,3.467.592,5.624-1.268,6.934-4.736,1.48-3.932.93-8.33-.973-10.909-1.86-2.537-3.467-2.114-3.467-2.114l-.677.719c-.211,2.875-2.2,2.622-2.2,2.622-2.579.085-1.142-3.34-1.142-3.34,1.1-2.283,4.271-3.89,4.271-3.89.507,1.268.761,1.945,3.044,3.975a8.481,8.481,0,0,0,4.059,2.2c-3.087,7.569,1.226,17.336,1.226,17.336.592,1.607,1.607,1.353,1.607,1.353,1.057-.423.042-2.368.042-2.368-4.9-11.924,3.805-17.463,3.805-17.463a11.558,11.558,0,0,0-3.721-4.863,1.266,1.266,0,0,0-1.86.634c-.719,2.156-3.214,1.268-3.214,1.268-3.34-.973-3.509-3.3-3.509-3.3h9.81c4.736,0,5.285,4.736,5.285,4.736l-.381,18.224,3.932,3.932V22.818h14.461v.465c-10.19,4.9-12.9,7.738-12.9,7.738l3.34,5.5c10.824.423,11.67,11.332,11.67,11.332.127,1.184.93,1.1.93,1.1.888,0,.761-1.311.761-1.311V22.818h3.171V18.759H145.919c-2.241,0-2.537-1.4-2.537-1.4ZM24.355,37.659c-.8-1.353-2.072-3.044-2.072-3.044,1.015-5.116-1.4-7.822-1.4-7.822a8.378,8.378,0,0,0-4.228-3.214,4.107,4.107,0,0,0-.381-.888h8.414l-.3,14.926Zm72.177-.507a30.446,30.446,0,0,0-4.4-4.017l-1.522-1.142a61.289,61.289,0,0,1,5.92-3.467Zm62.156,0a30.446,30.446,0,0,0-4.4-4.017l-1.522-1.142a61.288,61.288,0,0,1,5.92-3.467Z" transform="translate(0 -7.71)"/>
        <path id="Path_61952" data-name="Path 61952" d="M489.542,10.891a2.624,2.624,0,0,1-1.818-.465c-1.057-.8-1.057-3.256-1.057-3.256.042-1.86-1.1-1.564-1.1-1.564s-.719-.042-.677,1.607l-.211,8.287a10.155,10.155,0,0,0-2.622-3.552s-.677-1.057-3.044-1.1H462.65s3.044-1.48,3.594-3.721-.085-3.256-1.4-3.848c0,0-2.918-.8-2.918,1.9l.127.93s.634,2.2-2.537,3.3c0,0-2.537,1.438-6.934-1.353,0,0-6.089-4.228-7.1-5.116,0,0-4.863-4.524-10.824-2.41,0,0-4.059,1.057-8.457,7.146l2.875,3.214H425.06a2.816,2.816,0,0,1-2.368-2.326s.042-2.537-.592-2.918c0,0-1.1-.55-1.226.677l-.338,9.936s-5.412-9.175-11.755-4.651a13.334,13.334,0,0,0-4.355,5.539s-1.987,5.032,1.48,5.243a1.88,1.88,0,0,0,2.283-.761s1.4-1.776,2.579-1.1c1.184.634.423,2.41-.3,3.044a4.765,4.765,0,0,1-2.452,1.311s-.55.719.507,1.1h.085L411.149,27a2.746,2.746,0,0,0,2.326.254,1.77,1.77,0,0,0,.888-.8l.634-.846,5.032-6.681.338.254-.211,6.808-.381,11.459L424,41.8l.085-16.068V14.95h4.693l-.3,11.036-.3,11.586,4.1,4.271V14.95H447.6a14.656,14.656,0,0,0-5.92,6.342,8.789,8.789,0,0,0-.085,4.693h0c.465,1.353,1.522,2.452,3.805,2.622,0,0,3.256.254,4.228-2.622h0v-.127h0a6.8,6.8,0,0,0,.169-1.945,3.786,3.786,0,0,0-1.945-2.664s2.072-2.664,3.89-3.34l-.254,8.118-.254,7.78s-2.579-2.537-9.471-3.129c0,0-6.469.634-5.877-4.059a6.766,6.766,0,0,1,.042-.719,3.844,3.844,0,0,1,1.015-1.987,1.977,1.977,0,0,1,.254-.211.8.8,0,0,1,.677-.085,1.519,1.519,0,0,0,1.353-.973h0a3.272,3.272,0,0,0,.211-1.184,1.836,1.836,0,0,0-.381-1.268s-1.649-1.734-3.552.93a13.751,13.751,0,0,0-1.48,4.9h0a10.567,10.567,0,0,0,.677,4.989s1.353,4.82,6.385,5.074c0,0,1.353.338,4.524-.465a6.8,6.8,0,0,1,6.342,1.311s1.1.719,1.649,3.171c0,0,.127,1.268,1.1,1.015,0,0,.677,0,.677-1.607V16.853l-2.241-1.86h16.152v.634a51.357,51.357,0,0,0-12.051,7.188l1.9,3.214,1.48,2.495s9.3-.423,10.19,10.106c0,0,0,2.495,1.184,2.495,0,0,.972.127.93-1.734v-20s5.581.127,6.131,4.313c0,0-3.509-1.48-4.736,1.818a2.43,2.43,0,0,0-.127.507h0a3.515,3.515,0,0,0,2.495,4.355s3.89,1.226,4.567-3.848c0-.127.042-.338.042-.507h0v-.169h0c.338-4.567-2.326-9.175-8.33-10.359v-.507h6.216a4.934,4.934,0,0,1,5.2,4.144l-.085,6.85-.169,11.839,3.932,3.932V14.95h3.805V10.891h-2.326ZM413.348,19.94c-.465.338-.634-.338-.634-.338a2.446,2.446,0,0,0-1.945-1.522c-.55,0,0-.761,0-.761a12.993,12.993,0,0,1,2.156-2.368c2.833-2.114,4.313.465,4.313.465l-3.932,4.524Zm18.562-9.049-.93-1.184s4.778-8.372,13.531-4.82c0,0,2.875,1.649,3.763,2.241,0,0,3.721,3.044,6.131,3.763H431.91ZM469.2,25.733V29.2a12.159,12.159,0,0,0-3.087-3.256c-1.438-1.1-2.748-1.9-2.748-1.9A60.238,60.238,0,0,1,469.2,20.4v5.328Z" transform="translate(-233.096 0.031)"/>
      </g>
      <path id="Path_61953" data-name="Path 61953" d="M692.845,52.677H630.52a5.919,5.919,0,0,1-5.92-5.92V31.62a5.919,5.919,0,0,1,5.92-5.92h68.245V46.757a5.919,5.919,0,0,1-5.92,5.92Z" transform="translate(-360.501 -14.82)" fill="#ee303b"/>
      <g id="Group_855" data-name="Group 855" transform="translate(271.076 13.882)">
        <path id="Path_61954" data-name="Path 61954" d="M642.368,39.734,641.1,38.043h7.357a.971.971,0,0,0,.169-.592c0-.381-.254-.55-.719-.55a7.55,7.55,0,0,0-1.268.085,12.627,12.627,0,0,1-1.607.085,4.328,4.328,0,0,1-2.664-.761,2.389,2.389,0,0,1-1.015-1.987,2.067,2.067,0,0,1,.507-1.522l1.015.465a1.237,1.237,0,0,0-.55.973c0,.55.465.846,1.353.846a6.638,6.638,0,0,0,1.4-.085,10.7,10.7,0,0,1,1.438-.085,2.963,2.963,0,0,1,2.2.846,3.557,3.557,0,0,1,.973,2.283h.972l1.268,1.691h-5.2a1.868,1.868,0,0,1,.254.677,3.978,3.978,0,0,1,2.622,1.057,3.289,3.289,0,0,1,1.057,2.452,3.069,3.069,0,0,1-.634,2.03,4.317,4.317,0,0,1-1.776,1.438,18.294,18.294,0,0,1,2.156,1.649,21.519,21.519,0,0,1,1.691,1.649l.254,1.4a22.473,22.473,0,0,0-3.805-2.706,16.751,16.751,0,0,0-4.059-1.438l-1.9-3.509a8.551,8.551,0,0,0,3.044.846,4.807,4.807,0,0,0,2.41-.719,1.883,1.883,0,0,0,1.057-1.522c0-.55-.085-.465-.254-.634a.977.977,0,0,0-.719-.211,2.109,2.109,0,0,0-.888.211,1.833,1.833,0,0,1-.677,1.353,2.19,2.19,0,0,1-1.48.592,1.692,1.692,0,0,1-1.226-.465,1.475,1.475,0,0,1-.507-1.184,2.061,2.061,0,0,1,.719-1.48,3.448,3.448,0,0,1,1.776-.8,1.4,1.4,0,0,0-.719-.761h-2.833Z" transform="translate(-641.1 -32.8)" fill="#fff"/>
        <path id="Path_61955" data-name="Path 61955" d="M672.367,60.864h-4.144L667.8,59.3h4.144Z" transform="translate(-656.51 -48.095)" fill="#fff"/>
        <path id="Path_61956" data-name="Path 61956" d="M686.532,45.142l1.268,1.691a3.919,3.919,0,0,0-3.214,1.691,7.094,7.094,0,0,0-1.268,4.355c0,1.776.465,2.875,1.4,2.96a1.241,1.241,0,0,1-.169-.677,1.34,1.34,0,0,1,.381-.973,1.4,1.4,0,0,1,1.015-.423,1.634,1.634,0,0,1,1.142.465,1.692,1.692,0,0,1,.465,1.226,1.786,1.786,0,0,1-.55,1.353,2.06,2.06,0,0,1-1.438.507,3.508,3.508,0,0,1-2.833-1.649,7.324,7.324,0,0,1-1.226-4.4,7.45,7.45,0,0,1,1.268-4.524,3.636,3.636,0,0,1,2.875-1.649h.846Z" transform="translate(-664.418 -39.899)" fill="#fff"/>
        <path id="Path_61957" data-name="Path 61957" d="M703.868,45.781h.085a7.3,7.3,0,0,1-.254-1.987V40.2l1.1.677c.127.973.465,1.438,1.015,1.438l1.268,1.691H705.9a.718.718,0,0,1-.55-.169l.211,10.909-1.9-1.945V48.445a3.244,3.244,0,0,0-.634-1.945,21.123,21.123,0,0,0-1.86,1.734q-1.078,1.078-1.776,1.9l-2.452-1.184c.888-.761,1.353-1.4,1.353-1.86s-.042-.338-.169-.423a.536.536,0,0,0-.381-.169.9.9,0,0,0-.507.169,1.273,1.273,0,0,1-.592.169,1.35,1.35,0,0,1-.972-.423,1.332,1.332,0,0,1-.465-.973,3.292,3.292,0,0,1,1.226-2.114,3.961,3.961,0,0,1,2.833-1.142c1.86,0,3.383,1.226,4.609,3.636Zm-3.552-1.607a3.013,3.013,0,0,0-2.2,1.057,1.955,1.955,0,0,1,1.142,1.564,27,27,0,0,1,2.495-2.114,2.1,2.1,0,0,0-1.4-.507Z" transform="translate(-672.325 -37.071)" fill="#fff"/>
        <path id="Path_61958" data-name="Path 61958" d="M730.968,45.781h.085a7.3,7.3,0,0,1-.254-1.987V40.2l1.1.677c.127.973.465,1.438,1.015,1.438l1.268,1.691H733a.718.718,0,0,1-.55-.169l.211,10.909-1.9-1.945V48.445a3.244,3.244,0,0,0-.634-1.945,21.115,21.115,0,0,0-1.86,1.734q-1.078,1.078-1.776,1.9l-2.452-1.184c.888-.761,1.353-1.4,1.353-1.86s-.042-.338-.169-.423a.536.536,0,0,0-.381-.169.9.9,0,0,0-.507.169,1.273,1.273,0,0,1-.592.169,1.35,1.35,0,0,1-.972-.423,1.332,1.332,0,0,1-.465-.973,3.292,3.292,0,0,1,1.226-2.114,3.961,3.961,0,0,1,2.833-1.142c1.86,0,3.383,1.226,4.609,3.636Zm-3.552-1.607a3.013,3.013,0,0,0-2.2,1.057,1.955,1.955,0,0,1,1.142,1.564,27.013,27.013,0,0,1,2.495-2.114,2.1,2.1,0,0,0-1.4-.507Z" transform="translate(-687.966 -37.071)" fill="#fff"/>
        <path id="Path_61959" data-name="Path 61959" d="M748.867,44.19a6.777,6.777,0,0,1-.254-1.945V40.3l1.1.677c.085.973.381,1.438.888,1.438l1.269,1.691h-1.184a1.17,1.17,0,0,1-.55-.127l.3,11.2-1.987-1.9.127-6.342a3.143,3.143,0,0,0-.507-2.03,1.677,1.677,0,0,0-1.522-.719L745.4,42.5h1.269a1.806,1.806,0,0,1,1.226.423,3.5,3.5,0,0,1,.888,1.438h.085Z" transform="translate(-701.299 -37.129)" fill="#fff"/>
        <path id="Path_61960" data-name="Path 61960" d="M758.169,46.891,756.9,45.2h9.767l1.269,1.691h-1.565V57.5l-.8-.465a5.778,5.778,0,0,0-1.945-2.748,5.678,5.678,0,0,0-3.383-1.1L758.3,50.443a18.02,18.02,0,0,1,6.3-3.044v-.55h-6.385Zm4.524,9.936a1.339,1.339,0,0,1-.972.381,1.411,1.411,0,0,1-.972-.381,1.312,1.312,0,0,1-.381-.93,1.489,1.489,0,0,1,.381-.973,1.339,1.339,0,0,1,.972-.381,1.411,1.411,0,0,1,.972.381,1.19,1.19,0,0,1,.381.973A1.243,1.243,0,0,1,762.693,56.828Zm1.9-4.693V50.063a13.844,13.844,0,0,0-2.875,1.4,6.491,6.491,0,0,1,3.044,2.664h.085a7.3,7.3,0,0,1-.254-1.987Z" transform="translate(-707.936 -39.957)" fill="#fff"/>
      </g>
    </g>
  </g>
</svg>
