<svg width="117" height="36" viewBox="0 0 117 36" fill="none" xmlns="http://www.w3.org/2000/svg">
<path d="M51.6364 0.727272V24H46.3636L37.9545 11.7727H37.8182V24H31.5V0.727272H36.8636L45.1364 12.9091H45.3182V0.727272H51.6364Z" fill="white"/>
<path d="M53.9886 5.81818V0.727272H74.2159V5.81818H67.2159V24H60.9886V5.81818H53.9886Z" fill="white"/>
<path d="M76.5938 24V0.727272H86.6392C88.3665 0.727272 89.8778 1.06818 91.1733 1.75C92.4687 2.43182 93.4763 3.39015 94.196 4.625C94.9157 5.85985 95.2756 7.30303 95.2756 8.95455C95.2756 10.6212 94.9044 12.0644 94.1619 13.2841C93.4271 14.5038 92.393 15.4432 91.0597 16.1023C89.7339 16.7614 88.1847 17.0909 86.4119 17.0909H80.4119V12.1818H85.1392C85.8816 12.1818 86.5142 12.053 87.0369 11.7955C87.5672 11.5303 87.9725 11.1553 88.2528 10.6705C88.5407 10.1856 88.6847 9.61364 88.6847 8.95455C88.6847 8.28788 88.5407 7.7197 88.2528 7.25C87.9725 6.77273 87.5672 6.40909 87.0369 6.15909C86.5142 5.90151 85.8816 5.77273 85.1392 5.77273H82.9119V24H76.5938Z" fill="white"/>
<path d="M97.5938 24V0.727272H103.912V18.9091H113.321V24H97.5938Z" fill="white"/>
<path d="M31.0866 30.2727L31.5021 33.6058H31.5391L33.0625 30.2727H34.5121L32.1669 35H30.4126L29.6371 30.2727H31.0866Z" fill="white"/>
<path d="M36.2508 30.2727L35.466 35H34.1826L34.9674 30.2727H36.2508Z" fill="white"/>
<path d="M39.158 31.75C39.1718 31.5977 39.1349 31.4784 39.0472 31.3922C38.9595 31.3045 38.8117 31.2607 38.604 31.2607C38.4717 31.2607 38.3609 31.276 38.2716 31.3068C38.1839 31.3376 38.1154 31.3799 38.0662 31.4338C38.0185 31.4876 37.9885 31.55 37.9762 31.6207C37.9623 31.6761 37.9631 31.7269 37.9785 31.7731C37.9954 31.8177 38.0269 31.8585 38.0731 31.8954C38.1208 31.9323 38.1831 31.9654 38.2601 31.9947C38.3386 32.0239 38.4317 32.0501 38.5394 32.0732L38.9087 32.1562C39.1611 32.2116 39.3726 32.2847 39.5435 32.3755C39.7158 32.4648 39.8512 32.571 39.9497 32.6941C40.0482 32.8172 40.1128 32.9549 40.1436 33.1072C40.1759 33.2596 40.1767 33.4258 40.1459 33.6058C40.0936 33.9167 39.9728 34.1798 39.7835 34.3952C39.5942 34.6107 39.3473 34.7746 39.0426 34.8869C38.7379 34.9992 38.3855 35.0554 37.9854 35.0554C37.5761 35.0554 37.2283 34.9946 36.9421 34.873C36.6574 34.7499 36.4512 34.5622 36.3235 34.3098C36.1973 34.0559 36.1665 33.732 36.2311 33.3381H37.4499C37.4314 33.4827 37.4468 33.6043 37.496 33.7028C37.5453 33.8013 37.6245 33.8759 37.7338 33.9267C37.8431 33.9775 37.9792 34.0028 38.1424 34.0028C38.2809 34.0028 38.3993 33.9859 38.4978 33.9521C38.5963 33.9182 38.674 33.8713 38.731 33.8113C38.7879 33.7512 38.8225 33.6828 38.8348 33.6058C38.8471 33.535 38.8348 33.4719 38.7979 33.4165C38.761 33.3612 38.694 33.3111 38.5971 33.2665C38.5001 33.2219 38.367 33.1811 38.1978 33.1442L37.7453 33.0426C37.3437 32.9503 37.0406 32.7979 36.8359 32.5856C36.6312 32.3732 36.5589 32.0824 36.6189 31.7131C36.6682 31.4115 36.792 31.1483 36.9905 30.9237C37.1906 30.6974 37.4445 30.522 37.7523 30.3974C38.0616 30.2712 38.404 30.2081 38.7794 30.2081C39.1611 30.2081 39.4804 30.272 39.7374 30.3997C39.9959 30.5274 40.1813 30.7067 40.2936 30.9375C40.4075 31.1683 40.4383 31.4392 40.386 31.75H39.158Z" fill="white"/>
<path d="M42.4715 30.2727L41.6867 35H40.4033L41.1881 30.2727H42.4715Z" fill="white"/>
<path d="M47.253 32.7195C47.1668 33.2334 46.996 33.6643 46.7405 34.0121C46.4851 34.3598 46.175 34.6222 45.8103 34.7992C45.4456 34.9761 45.0555 35.0646 44.64 35.0646C44.1969 35.0646 43.8122 34.9685 43.4859 34.7761C43.1597 34.5837 42.9219 34.3021 42.7727 33.9313C42.6234 33.5604 42.5934 33.1072 42.6827 32.5717C42.7658 32.0578 42.935 31.6254 43.1905 31.2745C43.4459 30.9236 43.7575 30.6582 44.1253 30.4782C44.4931 30.2981 44.8863 30.2081 45.3048 30.2081C45.7449 30.2081 46.1273 30.305 46.452 30.4989C46.7782 30.6928 47.0152 30.9767 47.163 31.3507C47.3122 31.7246 47.3422 32.1809 47.253 32.7195ZM45.9604 32.5717C46.0034 32.3009 46.0065 32.0732 45.9696 31.8885C45.9327 31.7023 45.855 31.5623 45.7365 31.4684C45.618 31.373 45.4587 31.3253 45.2587 31.3253C45.0309 31.3253 44.8293 31.3807 44.6539 31.4915C44.4785 31.6023 44.3331 31.7615 44.2176 31.9693C44.1022 32.177 44.0214 32.4271 43.9753 32.7195C43.926 32.9934 43.9214 33.2211 43.9614 33.4027C44.003 33.5843 44.0845 33.7205 44.2061 33.8113C44.3292 33.902 44.4892 33.9474 44.6862 33.9474C44.9109 33.9474 45.1094 33.8936 45.2817 33.7859C45.4556 33.6781 45.5995 33.522 45.7134 33.3173C45.8288 33.1126 45.9111 32.8641 45.9604 32.5717Z" fill="white"/>
<path d="M52.3432 30.2727L51.5584 35H50.4874L49.1948 32.5163H49.1671L48.7516 35H47.4682L48.253 30.2727H49.3425L50.6167 32.7472H50.6536L51.0598 30.2727H52.3432Z" fill="white"/>
<path d="M53.9405 31.3068L54.1159 30.2727H58.2246L58.0492 31.3068H56.6273L56.0179 35H54.753L55.3624 31.3068H53.9405Z" fill="white"/>
<path d="M62.6587 32.7195C62.5726 33.2334 62.4018 33.6643 62.1463 34.0121C61.8909 34.3598 61.5808 34.6222 61.2161 34.7992C60.8514 34.9761 60.4613 35.0646 60.0458 35.0646C59.6026 35.0646 59.2179 34.9685 58.8917 34.7761C58.5655 34.5837 58.3277 34.3021 58.1784 33.9313C58.0292 33.5604 57.9992 33.1072 58.0884 32.5717C58.1715 32.0578 58.3408 31.6254 58.5962 31.2745C58.8517 30.9236 59.1633 30.6582 59.5311 30.4782C59.8989 30.2981 60.292 30.2081 60.7106 30.2081C61.1507 30.2081 61.5331 30.305 61.8578 30.4989C62.184 30.6928 62.421 30.9767 62.5687 31.3507C62.718 31.7246 62.748 32.1809 62.6587 32.7195ZM61.3661 32.5717C61.4092 32.3009 61.4123 32.0732 61.3754 31.8885C61.3384 31.7023 61.2607 31.5623 61.1422 31.4684C61.0237 31.373 60.8645 31.3253 60.6644 31.3253C60.4367 31.3253 60.2351 31.3807 60.0597 31.4915C59.8842 31.6023 59.7388 31.7615 59.6234 31.9693C59.508 32.177 59.4272 32.4271 59.381 32.7195C59.3318 32.9934 59.3272 33.2211 59.3672 33.4027C59.4087 33.5843 59.4903 33.7205 59.6119 33.8113C59.735 33.902 59.895 33.9474 60.092 33.9474C60.3166 33.9474 60.5152 33.8936 60.6875 33.7859C60.8614 33.6781 61.0053 33.522 61.1191 33.3173C61.2346 33.1126 61.3169 32.8641 61.3661 32.5717Z" fill="white"/>
<path d="M66.0155 35H64.1689L64.9537 30.2727H66.7264C67.2127 30.2727 67.619 30.3704 67.9452 30.5659C68.2714 30.7613 68.503 31.0406 68.64 31.4038C68.7769 31.7669 68.8038 32.1993 68.7207 32.701C68.6407 33.1842 68.4784 33.5974 68.2337 33.9405C67.9906 34.2837 67.6797 34.546 67.3012 34.7276C66.9242 34.9092 66.4956 35 66.0155 35ZM65.6323 33.9105H66.0986C66.3325 33.9105 66.541 33.8697 66.7241 33.7882C66.9088 33.7051 67.0627 33.5666 67.1858 33.3727C67.3104 33.1773 67.4004 32.9103 67.4558 32.5717C67.5082 32.2517 67.5066 32.0047 67.4512 31.8308C67.3958 31.6554 67.2904 31.5338 67.135 31.4661C66.9796 31.3968 66.7788 31.3622 66.5325 31.3622H66.057L65.6323 33.9105Z" fill="white"/>
<path d="M71.0042 30.2727L70.2194 35H68.936L69.7208 30.2727H71.0042Z" fill="white"/>
<path d="M74.4238 31.8331C74.4177 31.7515 74.4007 31.68 74.373 31.6184C74.3453 31.5553 74.3061 31.5022 74.2553 31.4592C74.2045 31.4145 74.1415 31.3815 74.066 31.3599C73.9922 31.3368 73.9052 31.3253 73.8052 31.3253C73.5898 31.3253 73.3936 31.3768 73.2166 31.4799C73.0397 31.583 72.8912 31.7315 72.7711 31.9254C72.6526 32.1193 72.5711 32.3532 72.5265 32.6271C72.4803 32.9041 72.4764 33.1411 72.5149 33.3381C72.5534 33.535 72.6365 33.6858 72.7642 33.7905C72.8935 33.8951 73.0681 33.9474 73.2882 33.9474C73.4851 33.9474 73.6552 33.919 73.7983 33.862C73.9414 33.8051 74.056 33.7243 74.1422 33.6197C74.2284 33.515 74.2823 33.3919 74.3038 33.2504L74.5254 33.2734H73.4451L73.5929 32.3594H75.6887L75.5826 33.0149C75.5118 33.4458 75.3594 33.8143 75.1255 34.1206C74.8932 34.4252 74.6039 34.6592 74.2576 34.8223C73.9114 34.9838 73.5313 35.0646 73.1174 35.0646C72.6588 35.0646 72.2718 34.9669 71.9563 34.7715C71.6409 34.5761 71.4154 34.2975 71.28 33.9359C71.1461 33.5743 71.12 33.1442 71.2015 32.6456C71.2662 32.2547 71.3831 31.9085 71.5524 31.6069C71.7232 31.3053 71.9317 31.0506 72.1779 30.8429C72.4241 30.6336 72.6957 30.4759 72.9927 30.3697C73.2897 30.262 73.5975 30.2081 73.916 30.2081C74.1945 30.2081 74.4477 30.2481 74.6754 30.3281C74.9032 30.4066 75.0978 30.5189 75.2594 30.6651C75.421 30.8098 75.5418 30.9814 75.6218 31.1799C75.7034 31.3784 75.7364 31.5961 75.7211 31.8331H74.4238Z" fill="white"/>
<path d="M77.9168 30.2727L77.132 35H75.8486L76.6334 30.2727H77.9168Z" fill="white"/>
<path d="M78.2203 31.3068L78.3957 30.2727H82.5044L82.329 31.3068H80.9071L80.2977 35H79.0328L79.6422 31.3068H78.2203Z" fill="white"/>
<path d="M82.8339 35H81.449L83.7941 30.2727H85.5484L86.324 35H84.939L84.4774 31.5746H84.4404L82.8339 35ZM82.8893 33.1349H85.493L85.3268 34.0952H82.7231L82.8893 33.1349Z" fill="white"/>
<path d="M86.7793 35L87.5641 30.2727H88.8474L88.2381 33.9659H90.1493L89.9739 35H86.7793Z" fill="white"/>
<path d="M92.9878 35L92.3785 30.2727H93.8096L93.9758 33.1811H94.0127L95.2591 30.2727H96.3856L96.6718 33.1903H96.7087L97.8351 30.2727H99.2662L97.0873 35H95.8593L95.4992 32.3594H95.4623L94.2158 35H92.9878Z" fill="white"/>
<path d="M103.557 32.7195C103.471 33.2334 103.3 33.6643 103.044 34.0121C102.789 34.3598 102.479 34.6222 102.114 34.7992C101.749 34.9761 101.359 35.0646 100.944 35.0646C100.501 35.0646 100.116 34.9685 99.7896 34.7761C99.4634 34.5837 99.2257 34.3021 99.0764 33.9313C98.9271 33.5604 98.8971 33.1072 98.9864 32.5717C99.0695 32.0578 99.2387 31.6254 99.4942 31.2745C99.7496 30.9236 100.061 30.6582 100.429 30.4782C100.797 30.2981 101.19 30.2081 101.609 30.2081C102.049 30.2081 102.431 30.305 102.756 30.4989C103.082 30.6928 103.319 30.9767 103.467 31.3507C103.616 31.7246 103.646 32.1809 103.557 32.7195ZM102.264 32.5717C102.307 32.3009 102.31 32.0732 102.273 31.8885C102.236 31.7023 102.159 31.5623 102.04 31.4684C101.922 31.373 101.762 31.3253 101.562 31.3253C101.335 31.3253 101.133 31.3807 100.958 31.4915C100.782 31.6023 100.637 31.7615 100.521 31.9693C100.406 32.177 100.325 32.4271 100.279 32.7195C100.23 32.9934 100.225 33.2211 100.265 33.4027C100.307 33.5843 100.388 33.7205 100.51 33.8113C100.633 33.902 100.793 33.9474 100.99 33.9474C101.215 33.9474 101.413 33.8936 101.585 33.7859C101.759 33.6781 101.903 33.522 102.017 33.3173C102.133 33.1126 102.215 32.8641 102.264 32.5717Z" fill="white"/>
<path d="M103.772 35L104.557 30.2727H106.597C106.948 30.2727 107.244 30.3366 107.486 30.4643C107.727 30.592 107.901 30.7759 108.008 31.016C108.114 31.256 108.139 31.5438 108.084 31.8793C108.028 32.2178 107.906 32.5033 107.717 32.7356C107.529 32.9664 107.29 33.1419 106.999 33.2619C106.71 33.3804 106.385 33.4396 106.025 33.4396H104.806L104.972 32.4425H105.932C106.083 32.4425 106.216 32.424 106.329 32.3871C106.443 32.3486 106.536 32.2886 106.606 32.207C106.677 32.1239 106.723 32.0147 106.745 31.8793C106.766 31.7438 106.756 31.6338 106.713 31.5492C106.67 31.463 106.598 31.3999 106.498 31.3599C106.398 31.3184 106.274 31.2976 106.126 31.2976H105.674L105.055 35H103.772ZM106.902 32.8303L107.724 35H106.329L105.535 32.8303H106.902Z" fill="white"/>
<path d="M108.177 35L108.962 30.2727H110.245L109.636 33.9659H111.547L111.372 35H108.177Z" fill="white"/>
<path d="M113.737 35H111.891L112.675 30.2727H114.448C114.934 30.2727 115.341 30.3704 115.667 30.5659C115.993 30.7613 116.225 31.0406 116.362 31.4038C116.499 31.7669 116.526 32.1993 116.442 32.701C116.362 33.1842 116.2 33.5974 115.955 33.9405C115.712 34.2837 115.401 34.546 115.023 34.7276C114.646 34.9092 114.217 35 113.737 35ZM113.354 33.9105H113.82C114.054 33.9105 114.263 33.8697 114.446 33.7882C114.63 33.7051 114.784 33.5666 114.907 33.3727C115.032 33.1773 115.122 32.9103 115.178 32.5717C115.23 32.2517 115.228 32.0047 115.173 31.8308C115.117 31.6554 115.012 31.5338 114.857 31.4661C114.701 31.3968 114.5 31.3622 114.254 31.3622H113.779L113.354 33.9105Z" fill="white"/>
<path d="M26 23L0 21.5L26 20V23Z" fill="white"/>
<path d="M26 18L0 16.5L26 15V18Z" fill="white"/>
<path d="M26 13L0 11.5L26 10V13Z" fill="white"/>
</svg>
